<svg width="83" height="35" viewBox="0 0 83 35" fill="none" xmlns="http://www.w3.org/2000/svg">
<mask id="mask0_2227_16822" style="mask-type:luminance" maskUnits="userSpaceOnUse" x="48" y="3" width="14" height="18">
<path fill-rule="evenodd" clip-rule="evenodd" d="M48.9917 3.75H61.1054V20.3194H48.9917V3.75Z" fill="white"/>
</mask>
<g mask="url(#mask0_2227_16822)">
<path fill-rule="evenodd" clip-rule="evenodd" d="M50.3965 3.75L61.1054 20.3195C61.1054 20.3195 52.5138 19.1625 50.012 14.475C47.5102 9.78721 50.3965 3.75 50.3965 3.75Z" fill="#DB5C05"/>
</g>
<path fill-rule="evenodd" clip-rule="evenodd" d="M58.5647 4.34717L61.1054 20.3196C61.1054 20.3196 55.0463 16.6059 54.7232 12.2617C54.3999 7.91803 58.5647 4.34717 58.5647 4.34717Z" fill="#2F7DC1"/>
<path fill-rule="evenodd" clip-rule="evenodd" d="M54.7236 12.2614C55.0466 16.6053 61.1058 20.3193 61.1058 20.3193L54.8133 10.5825C54.7184 11.1245 54.6809 11.6859 54.7236 12.2614Z" fill="#21ABD9"/>
<path fill-rule="evenodd" clip-rule="evenodd" d="M3.75 17.1489H11.9824V19.6418H6.60173V22.4396H11.2289V24.8073H6.60173V30.134H3.75V17.1489Z" fill="#FFFFFF"/>
<path fill-rule="evenodd" clip-rule="evenodd" d="M13.0708 21.3099H15.7431V22.4938L15.7792 22.5117C16.389 21.6509 17.2497 21.2026 18.3439 21.2026C18.5233 21.2026 18.7206 21.2202 18.9179 21.2742V23.8392C18.7027 23.7849 18.4336 23.7492 18.1823 23.7492C17.2319 23.7492 16.4426 24.0362 15.7971 24.7897V30.1343H13.0708V21.3099Z" fill="#FFFFFF"/>
<path fill-rule="evenodd" clip-rule="evenodd" d="M25.9725 24.7177C25.8113 23.7672 25.1115 23.1932 24.2328 23.1932C23.3896 23.1932 22.6543 23.7136 22.4213 24.7177H25.9725ZM22.4391 26.4395C22.7443 27.6591 23.7488 28.2153 25.0041 28.2153C25.9904 28.2153 27.0664 27.8743 27.9992 27.2466V29.5243C27.1385 30.0623 25.8113 30.3314 24.6453 30.3314C21.7399 30.3314 19.6414 28.5199 19.6414 25.7579C19.6414 22.9425 21.8296 21.1128 24.2689 21.1128C26.4387 21.1128 28.4836 22.5479 28.4836 25.5066C28.4836 25.8118 28.4657 26.2064 28.4296 26.4395H22.4391Z" fill="#FFFFFF"/>
<path fill-rule="evenodd" clip-rule="evenodd" d="M36.036 24.7177C35.8744 23.7672 35.1749 23.1932 34.2963 23.1932C33.4531 23.1932 32.7178 23.7136 32.4844 24.7177H36.036ZM32.5026 26.4395C32.8078 27.6591 33.8122 28.2153 35.0676 28.2153C36.0539 28.2153 37.1298 27.8743 38.0624 27.2466V29.5243C37.2019 30.0623 35.8744 30.3314 34.7088 30.3314C31.8031 30.3314 29.7048 28.5199 29.7048 25.7579C29.7048 22.9425 31.8931 21.1128 34.332 21.1128C36.5021 21.1128 38.547 22.5479 38.547 25.5066C38.547 25.8118 38.5292 26.2064 38.4931 26.4395H32.5026Z" fill="#FFFFFF"/>
<path fill-rule="evenodd" clip-rule="evenodd" d="M46.1675 23.7138C45.7728 23.5165 45.2885 23.3728 44.7505 23.3728C43.3154 23.3728 42.5444 24.4493 42.5444 25.7763C42.5444 27.0856 43.2978 28.1079 44.6429 28.1079C45.2349 28.1079 45.7728 27.9109 46.1675 27.6596V23.7138ZM46.1853 29.6506C45.5934 30.0628 44.8042 30.3316 43.9434 30.3316C41.7197 30.3316 39.8005 28.6101 39.8005 25.9017C39.8005 23.1218 41.827 21.113 44.4635 21.113C45.1273 21.113 45.6652 21.2385 46.1317 21.4358L46.1675 21.4182V16.4321H48.8934V30.1346H46.2214V29.6682L46.1853 29.6506Z" fill="#FFFFFF"/>
<path fill-rule="evenodd" clip-rule="evenodd" d="M55.443 27.9819C56.6808 27.9819 57.6313 26.9775 57.6313 25.7221C57.6313 24.4664 56.6808 23.4623 55.443 23.4623C54.2058 23.4623 53.255 24.4664 53.255 25.7221C53.255 26.9775 54.2058 27.9819 55.443 27.9819ZM55.443 21.1128C58.2592 21.1128 60.3575 23.1214 60.3575 25.7221C60.3575 28.3226 58.2592 30.3314 55.443 30.3314C52.6273 30.3314 50.5291 28.3226 50.5291 25.7221C50.5291 23.1214 52.6273 21.1128 55.443 21.1128Z" fill="#FFFFFF"/>
<path fill-rule="evenodd" clip-rule="evenodd" d="M73.4091 25.0408C73.4091 24.3767 73.3018 24.0724 73.0866 23.839C72.8353 23.5696 72.5125 23.4623 72.1537 23.4623C71.526 23.4623 70.8804 23.7848 70.414 24.1976C70.4322 24.3231 70.4322 24.4667 70.4322 24.5922V30.1341H67.7059V25.0408C67.7059 24.4489 67.6162 24.09 67.3828 23.839C67.1319 23.5696 66.8091 23.4623 66.4505 23.4623C65.8225 23.4623 65.1772 23.803 64.7287 24.1797V30.1341H62.0024V21.3098H64.6926V22.0993L64.7287 22.1169C65.4103 21.5432 66.3072 21.1128 67.3828 21.1128C68.3336 21.1128 69.4274 21.4892 69.9478 22.3682C70.8986 21.525 71.9385 21.1128 73.0505 21.1128C74.0371 21.1128 74.8084 21.4532 75.3282 21.9917C75.8847 22.5658 76.1353 23.3368 76.1353 24.5922V30.1341H73.4091V25.0408Z" fill="#FFFFFF"/>
<path fill-rule="evenodd" clip-rule="evenodd" d="M76.8106 21.7021H76.478V21.48H77.3841V21.7021H77.0512V22.5738H76.8106V21.7021Z" fill="#FFFFFF"/>
<path fill-rule="evenodd" clip-rule="evenodd" d="M77.5693 21.48H77.8287L78.1163 21.9427L78.4039 21.48H78.6632V22.5738H78.424V21.8596L78.1163 22.3272H78.1099L77.8053 21.8645V22.5738H77.5693V21.48Z" fill="#FFFFFF"/>
<path fill-rule="evenodd" clip-rule="evenodd" d="M76.8106 21.7021H76.478V21.48H77.3841V21.7021H77.0512V22.5738H76.8106V21.7021Z" fill="#FFFFFF"/>
<path fill-rule="evenodd" clip-rule="evenodd" d="M77.5693 21.48H77.8287L78.1163 21.9427L78.4039 21.48H78.6632V22.5738H78.424V21.8596L78.1163 22.3272H78.1099L77.8053 21.8645V22.5738H77.5693V21.48Z" fill="#FFFFFF"/>
</svg>
